<svg xmlns="http://www.w3.org/2000/svg" viewBox="0 0 800 320" fill="none">
  <rect width="800" height="320" rx="16" fill="#F0F9FF"/>
  <!-- Checklist card -->
  <rect x="250" y="30" width="300" height="260" rx="12" fill="white" stroke="#0284C7" stroke-width="1.5"/>
  <rect x="250" y="30" width="300" height="36" rx="12" fill="#0284C7" opacity="0.06"/>
  <text x="400" y="54" font-family="Arial, sans-serif" font-size="14" font-weight="bold" fill="#0284C7" text-anchor="middle">Best Practices</text>
  <!-- Items -->
  <rect x="278" y="82" width="18" height="18" rx="4" fill="#0284C7" opacity="0.1" stroke="#0284C7" stroke-width="1"/>
  <text x="287" y="96" font-family="Arial, sans-serif" font-size="12" fill="#0284C7" text-anchor="middle">✓</text>
  <text x="308" y="96" font-family="Arial, sans-serif" font-size="13" fill="#1E293B">Break into small steps</text>

  <rect x="278" y="114" width="18" height="18" rx="4" fill="#0284C7" opacity="0.1" stroke="#0284C7" stroke-width="1"/>
  <text x="287" y="128" font-family="Arial, sans-serif" font-size="12" fill="#0284C7" text-anchor="middle">✓</text>
  <text x="308" y="128" font-family="Arial, sans-serif" font-size="13" fill="#1E293B">Master prompt crafting</text>

  <rect x="278" y="146" width="18" height="18" rx="4" fill="#0284C7" opacity="0.1" stroke="#0284C7" stroke-width="1"/>
  <text x="287" y="160" font-family="Arial, sans-serif" font-size="12" fill="#0284C7" text-anchor="middle">✓</text>
  <text x="308" y="160" font-family="Arial, sans-serif" font-size="13" fill="#1E293B">Test after every change</text>

  <rect x="278" y="178" width="18" height="18" rx="4" fill="#0284C7" opacity="0.1" stroke="#0284C7" stroke-width="1"/>
  <text x="287" y="192" font-family="Arial, sans-serif" font-size="12" fill="#0284C7" text-anchor="middle">✓</text>
  <text x="308" y="192" font-family="Arial, sans-serif" font-size="13" fill="#1E293B">Use version control</text>

  <rect x="278" y="210" width="18" height="18" rx="4" fill="#0284C7" opacity="0.1" stroke="#0284C7" stroke-width="1"/>
  <text x="287" y="224" font-family="Arial, sans-serif" font-size="12" fill="#0284C7" text-anchor="middle">✓</text>
  <text x="308" y="224" font-family="Arial, sans-serif" font-size="13" fill="#1E293B">Security from day one</text>

  <rect x="278" y="242" width="18" height="18" rx="4" fill="#0284C7" opacity="0.1" stroke="#0284C7" stroke-width="1"/>
  <text x="287" y="256" font-family="Arial, sans-serif" font-size="12" fill="#0284C7" text-anchor="middle">✓</text>
  <text x="308" y="256" font-family="Arial, sans-serif" font-size="13" fill="#1E293B">Document what works</text>
</svg>
