<svg xmlns="http://www.w3.org/2000/svg" viewBox="0 0 800 320" fill="none">
  <rect width="800" height="320" rx="16" fill="#F0F9FF"/>
  <!-- Lightbulb -->
  <circle cx="280" cy="140" r="50" fill="white" stroke="#0284C7" stroke-width="2"/>
  <path d="M280 100 L280 90" stroke="#0284C7" stroke-width="2.5" stroke-linecap="round"/>
  <path d="M280 190 L280 180" stroke="#0284C7" stroke-width="2.5" stroke-linecap="round"/>
  <path d="M240 140 L230 140" stroke="#0284C7" stroke-width="2.5" stroke-linecap="round"/>
  <path d="M330 140 L320 140" stroke="#0284C7" stroke-width="2.5" stroke-linecap="round"/>
  <path d="M253 113 L246 106" stroke="#0284C7" stroke-width="2.5" stroke-linecap="round"/>
  <path d="M314 174 L307 167" stroke="#0284C7" stroke-width="2.5" stroke-linecap="round"/>
  <path d="M253 167 L246 174" stroke="#0284C7" stroke-width="2.5" stroke-linecap="round"/>
  <path d="M314 113 L307 106" stroke="#0284C7" stroke-width="2.5" stroke-linecap="round"/>
  <path d="M268 155 C268 140, 280 125, 292 140 C292 150, 285 155, 285 162 L275 162 C275 155, 268 150, 268 155Z" fill="#0284C7" opacity="0.2"/>
  <rect x="273" y="164" width="14" height="6" rx="2" fill="#0284C7" opacity="0.3"/>
  <!-- Arrow -->
  <path d="M350 140 L430 140" stroke="#0284C7" stroke-width="2" stroke-dasharray="6 4" opacity="0.4"/>
  <path d="M425 133 L438 140 L425 147" fill="#0284C7" opacity="0.4"/>
  <!-- Code terminal -->
  <rect x="450" y="80" width="260" height="160" rx="12" fill="white" stroke="#0284C7" stroke-width="1.5"/>
  <rect x="450" y="80" width="260" height="28" rx="12" fill="#0284C7" opacity="0.08"/>
  <circle cx="470" cy="94" r="4" fill="#0284C7" opacity="0.3"/>
  <circle cx="484" cy="94" r="4" fill="#0284C7" opacity="0.3"/>
  <circle cx="498" cy="94" r="4" fill="#0284C7" opacity="0.3"/>
  <text x="470" y="128" font-family="monospace" font-size="11" fill="#0284C7" opacity="0.7">&gt; describe your idea...</text>
  <text x="470" y="148" font-family="monospace" font-size="11" fill="#94A3B8">&gt; AI generates code</text>
  <text x="470" y="168" font-family="monospace" font-size="11" fill="#94A3B8">&gt; you review &amp; iterate</text>
  <text x="470" y="188" font-family="monospace" font-size="11" fill="#22C55E">&gt; ship it ✓</text>
  <!-- Label -->
  <text x="400" y="290" font-family="Arial, sans-serif" font-size="14" fill="#94A3B8" text-anchor="middle">A new way to build software</text>
</svg>
