<svg xmlns="http://www.w3.org/2000/svg" viewBox="0 0 800 320" fill="none">
  <!-- Background -->
  <rect width="800" height="320" rx="16" fill="#F0F9FF"/>

  <!-- Code window -->
  <rect x="60" y="40" width="320" height="240" rx="12" fill="white" stroke="#E0E7EE" stroke-width="1.5"/>
  <rect x="60" y="40" width="320" height="32" rx="12" fill="#F8FAFC"/>
  <rect x="60" y="70" width="320" height="2" fill="#E0E7EE"/>
  <circle cx="80" cy="56" r="5" fill="#FF6B6B"/>
  <circle cx="96" cy="56" r="5" fill="#FFD93D"/>
  <circle cx="112" cy="56" r="5" fill="#6BCB77"/>

  <!-- Code lines -->
  <rect x="80" y="86" width="60" height="8" rx="4" fill="#0284C7" opacity="0.7"/>
  <rect x="148" y="86" width="90" height="8" rx="4" fill="#94A3B8"/>
  <rect x="96" y="106" width="120" height="8" rx="4" fill="#0284C7" opacity="0.4"/>
  <rect x="224" y="106" width="60" height="8" rx="4" fill="#94A3B8"/>
  <rect x="96" y="126" width="80" height="8" rx="4" fill="#94A3B8"/>
  <rect x="184" y="126" width="100" height="8" rx="4" fill="#0284C7" opacity="0.3"/>
  <rect x="80" y="146" width="40" height="8" rx="4" fill="#94A3B8"/>

  <rect x="80" y="174" width="70" height="8" rx="4" fill="#0284C7" opacity="0.7"/>
  <rect x="158" y="174" width="110" height="8" rx="4" fill="#94A3B8"/>
  <rect x="96" y="194" width="140" height="8" rx="4" fill="#0284C7" opacity="0.4"/>
  <rect x="96" y="214" width="100" height="8" rx="4" fill="#94A3B8"/>
  <rect x="204" y="214" width="70" height="8" rx="4" fill="#0284C7" opacity="0.3"/>
  <rect x="80" y="234" width="40" height="8" rx="4" fill="#94A3B8"/>
  <rect x="80" y="254" width="50" height="8" rx="4" fill="#0284C7" opacity="0.5"/>

  <!-- Arrow / connection -->
  <path d="M 410 160 L 450 160" stroke="#0284C7" stroke-width="2.5" stroke-dasharray="6 4" opacity="0.5"/>
  <path d="M 448 152 L 462 160 L 448 168" fill="#0284C7" opacity="0.5"/>

  <!-- AI brain / sparkle -->
  <circle cx="510" cy="160" r="44" fill="white" stroke="#0284C7" stroke-width="2"/>
  <circle cx="510" cy="160" r="30" fill="#F0F9FF"/>
  <!-- Sparkle paths -->
  <path d="M510 130 L510 126" stroke="#0284C7" stroke-width="2" stroke-linecap="round"/>
  <path d="M510 194 L510 190" stroke="#0284C7" stroke-width="2" stroke-linecap="round"/>
  <path d="M480 160 L476 160" stroke="#0284C7" stroke-width="2" stroke-linecap="round"/>
  <path d="M544 160 L540 160" stroke="#0284C7" stroke-width="2" stroke-linecap="round"/>
  <path d="M489 139 L486 136" stroke="#0284C7" stroke-width="2" stroke-linecap="round"/>
  <path d="M534 184 L531 181" stroke="#0284C7" stroke-width="2" stroke-linecap="round"/>
  <path d="M489 181 L486 184" stroke="#0284C7" stroke-width="2" stroke-linecap="round"/>
  <path d="M534 139 L531 136" stroke="#0284C7" stroke-width="2" stroke-linecap="round"/>
  <!-- AI text -->
  <text x="510" y="165" font-family="Arial, sans-serif" font-size="18" font-weight="bold" fill="#0284C7" text-anchor="middle">AI</text>

  <!-- Arrow to output -->
  <path d="M 558 160 L 598 160" stroke="#0284C7" stroke-width="2.5" stroke-dasharray="6 4" opacity="0.5"/>
  <path d="M 596 152 L 610 160 L 596 168" fill="#0284C7" opacity="0.5"/>

  <!-- Output: App window -->
  <rect x="630" y="60" width="140" height="200" rx="12" fill="white" stroke="#0284C7" stroke-width="1.5"/>
  <rect x="630" y="60" width="140" height="28" rx="12" fill="#0284C7"/>
  <rect x="630" y="86" width="140" height="2" fill="#0284C7" opacity="0.2"/>
  <text x="700" y="79" font-family="Arial, sans-serif" font-size="11" fill="white" text-anchor="middle">My App</text>

  <!-- App content mockup -->
  <rect x="645" y="100" width="110" height="10" rx="5" fill="#0284C7" opacity="0.15"/>
  <rect x="645" y="120" width="80" height="6" rx="3" fill="#94A3B8" opacity="0.4"/>
  <rect x="645" y="134" width="95" height="6" rx="3" fill="#94A3B8" opacity="0.4"/>

  <rect x="645" y="156" width="110" height="28" rx="6" fill="#F0F9FF" stroke="#E0E7EE" stroke-width="1"/>
  <rect x="655" y="164" width="50" height="5" rx="2.5" fill="#0284C7" opacity="0.4"/>
  <rect x="655" y="174" width="70" height="4" rx="2" fill="#94A3B8" opacity="0.4"/>

  <rect x="645" y="192" width="110" height="28" rx="6" fill="#F0F9FF" stroke="#E0E7EE" stroke-width="1"/>
  <rect x="655" y="200" width="60" height="5" rx="2.5" fill="#0284C7" opacity="0.4"/>
  <rect x="655" y="210" width="80" height="4" rx="2" fill="#94A3B8" opacity="0.4"/>

  <rect x="645" y="230" width="110" height="20" rx="6" fill="#0284C7"/>
  <text x="700" y="244" font-family="Arial, sans-serif" font-size="10" fill="white" text-anchor="middle">Submit</text>

  <!-- Labels -->
  <text x="220" y="306" font-family="Arial, sans-serif" font-size="12" fill="#94A3B8" text-anchor="middle">Your idea</text>
  <text x="510" y="226" font-family="Arial, sans-serif" font-size="12" fill="#94A3B8" text-anchor="middle">AI builds it</text>
  <text x="700" y="286" font-family="Arial, sans-serif" font-size="12" fill="#94A3B8" text-anchor="middle">Working app</text>
</svg>
